<?xml version="1.0" encoding="UTF-8" standalone="no"?>
<!-- Created with Inkscape (http://www.inkscape.org/) -->

<svg
   xmlns:dc="http://purl.org/dc/elements/1.1/"
   xmlns:cc="http://creativecommons.org/ns#"
   xmlns:rdf="http://www.w3.org/1999/02/22-rdf-syntax-ns#"
   xmlns:svg="http://www.w3.org/2000/svg"
   xmlns="http://www.w3.org/2000/svg"
   xmlns:sodipodi="http://sodipodi.sourceforge.net/DTD/sodipodi-0.dtd"
   xmlns:inkscape="http://www.inkscape.org/namespaces/inkscape"
   width="629.25696"
   height="316.49918"
   id="svg2"
   version="1.1"
   inkscape:version="0.48.4 r9939"
   sodipodi:docname="Cloud.svg"
   style="enable-background:new"
   enable-background="new"
   inkscape:export-filename="C:\Users\Mega\Documents\Blastoff\Assets\Cloud.png"
   inkscape:export-xdpi="90"
   inkscape:export-ydpi="90">
  <defs
     id="defs4">
    <inkscape:path-effect
       effect="skeletal"
       id="path-effect5361"
       is_visible="true"
       pattern="M 0,5 C 0,2.24 2.24,0 5,0 7.76,0 10,2.24 10,5 10,7.76 7.76,10 5,10 2.24,10 0,7.76 0,5 z"
       copytype="single_stretched"
       prop_scale="1"
       scale_y_rel="false"
       spacing="0"
       normal_offset="0"
       tang_offset="0"
       prop_units="false"
       vertical_pattern="false"
       fuse_tolerance="0" />
    <inkscape:path-effect
       effect="spiro"
       id="path-effect5359"
       is_visible="true" />
    <inkscape:path-effect
       effect="skeletal"
       id="path-effect5355"
       is_visible="true"
       pattern="M 0,5 C 0,2.24 2.24,0 5,0 7.76,0 10,2.24 10,5 10,7.76 7.76,10 5,10 2.24,10 0,7.76 0,5 z"
       copytype="single_stretched"
       prop_scale="1"
       scale_y_rel="false"
       spacing="0"
       normal_offset="0"
       tang_offset="0"
       prop_units="false"
       vertical_pattern="false"
       fuse_tolerance="0" />
    <inkscape:path-effect
       effect="spiro"
       id="path-effect5353"
       is_visible="true" />
    <inkscape:path-effect
       effect="skeletal"
       id="path-effect5349"
       is_visible="true"
       pattern="M 0,5 C 0,2.24 2.24,0 5,0 7.76,0 10,2.24 10,5 10,7.76 7.76,10 5,10 2.24,10 0,7.76 0,5 z"
       copytype="single_stretched"
       prop_scale="1"
       scale_y_rel="false"
       spacing="0"
       normal_offset="0"
       tang_offset="0"
       prop_units="false"
       vertical_pattern="false"
       fuse_tolerance="0" />
    <inkscape:path-effect
       effect="spiro"
       id="path-effect5347"
       is_visible="true" />
    <inkscape:path-effect
       effect="skeletal"
       id="path-effect5343"
       is_visible="true"
       pattern="M 0,5 C 0,2.24 2.24,0 5,0 7.76,0 10,2.24 10,5 10,7.76 7.76,10 5,10 2.24,10 0,7.76 0,5 z"
       copytype="single_stretched"
       prop_scale="1"
       scale_y_rel="false"
       spacing="0"
       normal_offset="0"
       tang_offset="0"
       prop_units="false"
       vertical_pattern="false"
       fuse_tolerance="0" />
    <inkscape:path-effect
       effect="spiro"
       id="path-effect5341"
       is_visible="true" />
    <inkscape:path-effect
       effect="skeletal"
       id="path-effect5331"
       is_visible="true"
       pattern="M 0,5 C 0,2.24 2.24,0 5,0 7.76,0 10,2.24 10,5 10,7.76 7.76,10 5,10 2.24,10 0,7.76 0,5 z"
       copytype="single_stretched"
       prop_scale="1"
       scale_y_rel="false"
       spacing="0"
       normal_offset="0"
       tang_offset="0"
       prop_units="false"
       vertical_pattern="false"
       fuse_tolerance="0" />
    <inkscape:path-effect
       effect="spiro"
       id="path-effect5329"
       is_visible="true" />
    <inkscape:path-effect
       effect="skeletal"
       id="path-effect5319"
       is_visible="true"
       pattern="M 0,5 C 0,2.24 2.24,0 5,0 7.76,0 10,2.24 10,5 10,7.76 7.76,10 5,10 2.24,10 0,7.76 0,5 z"
       copytype="single_stretched"
       prop_scale="1"
       scale_y_rel="false"
       spacing="0"
       normal_offset="0"
       tang_offset="0"
       prop_units="false"
       vertical_pattern="false"
       fuse_tolerance="0" />
    <inkscape:path-effect
       effect="spiro"
       id="path-effect5317"
       is_visible="true" />
    <inkscape:path-effect
       effect="skeletal"
       id="path-effect5313"
       is_visible="true"
       pattern="M 0,5 C 0,2.24 2.24,0 5,0 7.76,0 10,2.24 10,5 10,7.76 7.76,10 5,10 2.24,10 0,7.76 0,5 z"
       copytype="single_stretched"
       prop_scale="1"
       scale_y_rel="false"
       spacing="0"
       normal_offset="0"
       tang_offset="0"
       prop_units="false"
       vertical_pattern="false"
       fuse_tolerance="0" />
    <inkscape:path-effect
       effect="spiro"
       id="path-effect5311"
       is_visible="true" />
    <inkscape:path-effect
       effect="skeletal"
       id="path-effect5307"
       is_visible="true"
       pattern="M 0,5 C 0,2.24 2.24,0 5,0 7.76,0 10,2.24 10,5 10,7.76 7.76,10 5,10 2.24,10 0,7.76 0,5 z"
       copytype="single_stretched"
       prop_scale="1"
       scale_y_rel="false"
       spacing="0"
       normal_offset="0"
       tang_offset="0"
       prop_units="false"
       vertical_pattern="false"
       fuse_tolerance="0" />
    <inkscape:path-effect
       effect="spiro"
       id="path-effect5305"
       is_visible="true" />
    <inkscape:path-effect
       effect="skeletal"
       id="path-effect5301"
       is_visible="true"
       pattern="M 0,5 C 0,2.24 2.24,0 5,0 7.76,0 10,2.24 10,5 10,7.76 7.76,10 5,10 2.24,10 0,7.76 0,5 z"
       copytype="single_stretched"
       prop_scale="1"
       scale_y_rel="false"
       spacing="0"
       normal_offset="0"
       tang_offset="0"
       prop_units="false"
       vertical_pattern="false"
       fuse_tolerance="0" />
    <inkscape:path-effect
       effect="spiro"
       id="path-effect5299"
       is_visible="true" />
    <inkscape:path-effect
       effect="skeletal"
       id="path-effect5295"
       is_visible="true"
       pattern="M 0,5 C 0,2.24 2.24,0 5,0 7.76,0 10,2.24 10,5 10,7.76 7.76,10 5,10 2.24,10 0,7.76 0,5 z"
       copytype="single_stretched"
       prop_scale="1"
       scale_y_rel="false"
       spacing="0"
       normal_offset="0"
       tang_offset="0"
       prop_units="false"
       vertical_pattern="false"
       fuse_tolerance="0" />
    <inkscape:path-effect
       effect="spiro"
       id="path-effect5293"
       is_visible="true" />
    <inkscape:path-effect
       effect="skeletal"
       id="path-effect5289"
       is_visible="true"
       pattern="M 0,5 C 0,2.24 2.24,0 5,0 7.76,0 10,2.24 10,5 10,7.76 7.76,10 5,10 2.24,10 0,7.76 0,5 z"
       copytype="single_stretched"
       prop_scale="1"
       scale_y_rel="false"
       spacing="0"
       normal_offset="0"
       tang_offset="0"
       prop_units="false"
       vertical_pattern="false"
       fuse_tolerance="0" />
    <inkscape:path-effect
       effect="spiro"
       id="path-effect5287"
       is_visible="true" />
    <inkscape:path-effect
       effect="skeletal"
       id="path-effect5277"
       is_visible="true"
       pattern="M 0,5 C 0,2.24 2.24,0 5,0 7.76,0 10,2.24 10,5 10,7.76 7.76,10 5,10 2.24,10 0,7.76 0,5 z"
       copytype="single_stretched"
       prop_scale="1"
       scale_y_rel="false"
       spacing="0"
       normal_offset="0"
       tang_offset="0"
       prop_units="false"
       vertical_pattern="false"
       fuse_tolerance="0" />
    <inkscape:path-effect
       effect="spiro"
       id="path-effect5275"
       is_visible="true" />
    <inkscape:path-effect
       effect="skeletal"
       id="path-effect5271"
       is_visible="true"
       pattern="M 0,5 C 0,2.24 2.24,0 5,0 7.76,0 10,2.24 10,5 10,7.76 7.76,10 5,10 2.24,10 0,7.76 0,5 z"
       copytype="single_stretched"
       prop_scale="1"
       scale_y_rel="false"
       spacing="0"
       normal_offset="0"
       tang_offset="0"
       prop_units="false"
       vertical_pattern="false"
       fuse_tolerance="0" />
    <inkscape:path-effect
       effect="spiro"
       id="path-effect5269"
       is_visible="true" />
    <inkscape:path-effect
       effect="skeletal"
       id="path-effect5265"
       is_visible="true"
       pattern="M 0,5 C 0,2.24 2.24,0 5,0 7.76,0 10,2.24 10,5 10,7.76 7.76,10 5,10 2.24,10 0,7.76 0,5 z"
       copytype="single_stretched"
       prop_scale="1"
       scale_y_rel="false"
       spacing="0"
       normal_offset="0"
       tang_offset="0"
       prop_units="false"
       vertical_pattern="false"
       fuse_tolerance="0" />
    <inkscape:path-effect
       effect="spiro"
       id="path-effect5263"
       is_visible="true" />
    <inkscape:path-effect
       effect="skeletal"
       id="path-effect5259"
       is_visible="true"
       pattern="M 0,5 C 0,2.24 2.24,0 5,0 7.76,0 10,2.24 10,5 10,7.76 7.76,10 5,10 2.24,10 0,7.76 0,5 z"
       copytype="single_stretched"
       prop_scale="1"
       scale_y_rel="false"
       spacing="0"
       normal_offset="0"
       tang_offset="0"
       prop_units="false"
       vertical_pattern="false"
       fuse_tolerance="0" />
    <inkscape:path-effect
       effect="spiro"
       id="path-effect5257"
       is_visible="true" />
    <inkscape:path-effect
       effect="skeletal"
       id="path-effect5253"
       is_visible="true"
       pattern="m 19.070115,154.65255 c 0,-2.76 2.24,-5 5,-5 2.76,0 5,2.24 5,5 0,2.76 -2.24,5 -5,5 -2.76,0 -5,-2.24 -5,-5 z"
       copytype="single_stretched"
       prop_scale="1"
       scale_y_rel="false"
       spacing="0"
       normal_offset="0"
       tang_offset="0"
       prop_units="false"
       vertical_pattern="false"
       fuse_tolerance="0" />
    <inkscape:path-effect
       effect="spiro"
       id="path-effect5251"
       is_visible="true" />
    <inkscape:path-effect
       effect="skeletal"
       id="path-effect5247"
       is_visible="true"
       pattern="m 124.65767,-150.12855 c 0,-2.76 2.24,-5 5,-5 2.76,0 5,2.24 5,5 0,2.76 -2.24,5 -5,5 -2.76,0 -5,-2.24 -5,-5 z"
       copytype="single_stretched"
       prop_scale="1"
       scale_y_rel="false"
       spacing="0"
       normal_offset="0"
       tang_offset="0"
       prop_units="false"
       vertical_pattern="false"
       fuse_tolerance="0" />
    <inkscape:path-effect
       effect="spiro"
       id="path-effect5245"
       is_visible="true" />
    <filter
       inkscape:collect="always"
       id="filter5199">
      <feBlend
         inkscape:collect="always"
         mode="multiply"
         in2="BackgroundImage"
         id="feBlend5201" />
    </filter>
  </defs>
  <sodipodi:namedview
     id="base"
     pagecolor="#ffffff"
     bordercolor="#666666"
     borderopacity="1.0"
     inkscape:pageopacity="0"
     inkscape:pageshadow="2"
     inkscape:zoom="0.94425952"
     inkscape:cx="246.1024"
     inkscape:cy="165.95882"
     inkscape:document-units="px"
     inkscape:current-layer="layer1"
     showgrid="false"
     showborder="true"
     inkscape:snap-grids="true"
     inkscape:window-width="1366"
     inkscape:window-height="746"
     inkscape:window-x="-8"
     inkscape:window-y="-8"
     inkscape:window-maximized="1"
     fit-margin-top="0"
     fit-margin-left="0"
     fit-margin-right="0"
     fit-margin-bottom="0" />
  <metadata
     id="metadata7">
    <rdf:RDF>
      <cc:Work
         rdf:about="">
        <dc:format>image/svg+xml</dc:format>
        <dc:type
           rdf:resource="http://purl.org/dc/dcmitype/StillImage" />
        <dc:title></dc:title>
      </cc:Work>
    </rdf:RDF>
  </metadata>
  <g
     inkscape:label="Layer 1"
     inkscape:groupmode="layer"
     id="layer1"
     transform="translate(-63.252143,-175.86223)"
     style="display:inline;filter:url(#filter5199)">
    <g
       id="g5376"
       transform="matrix(0.61881636,0,0,0.57809026,76.628066,207.85922)">
      <path
         inkscape:export-filename="C:\Users\Mega\Documents\Blastoff\Assets\Cloud.png"
         inkscape:export-ydpi="90"
         inkscape:export-xdpi="90"
         inkscape:connector-curvature="0"
         id="path5186"
         d="m 370.81352,-49.711078 c -6.36072,-0.0134 -12.94128,0.442319 -19.64708,1.434737 -7.66376,1.134202 -15.48155,2.972274 -23.27461,5.575409 -6.39128,2.134903 -12.54045,4.700857 -18.37267,7.627138 -5.83254,2.926366 -11.35235,6.211175 -16.50526,9.745849 -7.29721,5.004075 -13.85496,10.520334 -19.65388,16.1909527 -5.7991,5.6705517 -10.83403,11.499455 -15.15683,17.1499375 -4.57091,5.9752448 -8.34744,11.7496258 -11.44175,17.0086858 -3.09446,5.259177 -5.51414,10.007076 -7.39642,13.945964 -1.75185,3.66584 -3.00864,6.54648 -3.93072,8.660488 6.52642,-1.232394 13.17694,-1.991093 19.88986,-2.252452 5.92322,-0.230651 11.82398,-0.06407 17.65813,0.498046 8.54882,0.824946 16.94813,2.499591 25.05458,4.921211 8.10644,2.421603 15.92212,5.578396 23.3554,9.381572 7.83895,4.00976 15.24831,8.744076 22.12156,14.050027 6.32939,4.885773 12.19296,10.266645 17.55034,16.042291 0.22158,-0.933479 0.48826,-2.004587 0.82267,-3.263481 0.61014,-2.298169 1.41858,-5.119077 2.48788,-8.422562 1.06931,-3.30352 2.39317,-7.082883 4.05889,-11.262313 1.6657,-4.179416 3.66919,-8.754945 6.08839,-13.641187 2.41904,-4.886175 5.25572,-10.087896 8.58971,-15.462441 3.33383,-5.374562 7.15706,-10.931909 11.55631,-16.518088 4.39926,-5.586209 9.37731,-11.19699 14.96807,-16.651867 5.17329,-5.04704793154 10.87862,-9.948534 17.11201,-14.5629545 6.23337,-4.6144365 12.99025,-8.9474735 20.25399,-12.8234345 1.16096,-0.619518 2.34001,-1.217956 3.52616,-1.813861 -0.67543,-0.438509 -1.45721,-0.942593 -2.33968,-1.509064 -1.77432,-1.139148 -3.96966,-2.515287 -6.57359,-4.044006 -2.6041,-1.528755 -5.61646,-3.208966 -9.04161,-4.928686 -3.42515,-1.719731 -7.25678,-3.479334 -11.48214,-5.166578 -4.22535,-1.687181 -8.84442,-3.297161 -13.82182,-4.713043 -4.97739,-1.415925 -10.31503,-2.638862 -15.95913,-3.538536 -5.64394,-0.899759 -11.59705,-1.478809 -17.77952,-1.620583 -0.89912,-0.0211 -1.80842,-0.03492 -2.71724,-0.03735 z m 149.71372,18.354238 c -7.09339,0.02279 -14.06701,0.564341 -20.84732,1.575979 -8.81322,1.313684 -17.30629,3.406242 -25.37831,6.110672 -6.03457,2.021785 -11.8356,4.393161 -17.37496,7.025005 0.021,0.03773 0.0355,0.06675 0.0274,0.08184 -0.0161,0.0228 -0.0791,0.0084 -0.16178,-0.0223 -1.82572,0.869422 -3.61927,1.765392 -5.38711,2.691063 -7.16951,3.753937 -13.85205,7.93902 -20.02465,12.4219896 -6.17262,4.4829359 -11.82688,9.2694297 -16.97043,14.1838314 -5.5594,5.310714 -10.51578,10.774161 -14.92086,16.228151 -4.40508,5.453989 -8.26727,10.887852 -11.63729,16.146376 -3.36988,5.258624 -6.25246,10.339041 -8.7313,15.127927 -2.47898,4.788872 -4.56056,9.279656 -6.30416,13.381003 -1.74361,4.101296 -3.14781,7.818374 -4.30827,11.061597 -1.16047,3.243181 -2.06717,6.01411 -2.77783,8.266445 -0.43187,1.368593 -0.76886,2.485598 -1.06528,3.456744 0.3302,0.358978 0.66476,0.71594 0.99108,1.077903 6.28995,6.978934 11.81831,14.495314 16.59287,22.309084 4.77439,7.8137 8.7948,15.91528 12.08904,24.11549 3.68262,9.16442 6.46564,18.44784 8.41451,27.60939 1.94871,9.16162 3.06391,18.21397 3.45876,26.94783 0.56488,12.54414 -0.37286,24.40674 -2.23171,35.25142 -1.85901,10.84473 -4.63782,20.67046 -7.81439,29.34891 -3.5294,9.64473 -7.55757,17.88618 -11.49572,24.75481 -3.93815,6.86864 -7.79079,12.37061 -11.09779,16.6593 -3.30717,4.28874 -6.06641,7.37777 -7.98297,9.39644 -1.9167,2.01864 -2.98472,2.97863 -3.0476,2.90663 -0.063,-0.072 0.87828,-1.17879 2.66326,-3.32295 1.78498,-2.14412 4.41608,-5.33821 7.57164,-9.70863 3.15539,-4.37042 6.83252,-9.9252 10.59885,-16.80798 3.76634,-6.8828 7.61607,-15.10437 10.96979,-24.67303 3.0172,-8.61076 5.64312,-18.32536 7.36281,-29.0144 1.71952,-10.68904 2.53427,-22.34573 1.88099,-34.63442 -0.45352,-8.55881 -1.61803,-17.41294 -3.58694,-26.37538 -1.96891,-8.96247 -4.74159,-18.03478 -8.39414,-26.98497 -3.26902,-8.00794 -7.24546,-15.9186 -11.94746,-23.53564 -4.70198,-7.6171 -10.13887,-14.94372 -16.30291,-21.729244 -5.60498,-6.172185 -11.79957,-11.899908 -18.528,-17.060725 -6.72827,-5.160851 -13.98457,-9.755129 -21.64961,-13.656013 -7.26924,-3.698609 -14.91037,-6.782231 -22.82965,-9.136247 -7.91896,-2.354018 -16.12059,-3.981016 -24.46107,-4.779982 -5.69243,-0.546212 -11.44239,-0.701343 -17.2266,-0.475757 -10.75338,0.419356 -21.35386,2.16484 -31.52715,5.055024 -8.13297,2.311235 -16.00133,5.351453 -23.49717,9.032134 -7.49563,3.680679 -14.61956,7.99946 -21.27882,12.860634 -7.06269,5.15436 -13.60265,10.916121 -19.58648,17.105335 -5.98367,6.189121 -11.41297,12.811241 -16.26251,19.699741 -5.27284,7.49099 -9.86687,15.2945 -13.78804,23.25316 -3.92118,7.95875 -7.17452,16.06982 -9.77635,24.16755 -2.94044,9.14886 -5.05611,18.28231 -6.49295,27.20797 -1.43684,8.9257 -2.1947,17.64303 -2.40692,26.0037 -0.2594,10.23813 0.30224,19.94333 1.40242,28.95494 1.10002,9.0117 2.74375,17.32823 4.68598,24.86631 1.1052,4.28992 2.3051,8.31629 3.54638,12.10236 1.71354,2.96103 3.16219,6.06544 4.30164,9.23288 0.92238,2.56446 1.64,5.1659 2.16432,7.79068 2.12487,4.89561 4.18801,9.089 6.01405,12.6004 2.38235,4.58099 4.36499,8.01431 5.71085,10.32566 1.34584,2.31135 2.05344,3.51136 1.98216,3.56824 -0.0711,0.057 -0.91738,-1.03577 -2.40692,-3.24857 -1.48953,-2.21289 -3.6275,-5.554 -6.16259,-10.07291 -1.37155,-2.44496 -2.85542,-5.24625 -4.40265,-8.39285 0.15193,1.44217 0.24276,2.88287 0.26975,4.3191 0.10026,5.75392 -0.82396,11.33545 -2.49467,16.4214 -1.67088,5.086 -4.09202,9.68936 -7.02566,13.58912 -3.41109,4.53092 -7.48614,8.0937 -11.76531,10.71221 -4.27917,2.61852 -8.76199,4.28654 -13.140729,5.09965 -2.785925,0.51624 -5.528048,0.6958 -8.158328,0.59471 -2.63028,-0.10107 -5.150493,-0.47703 -7.531061,-1.05559 -2.380732,-0.57862 -4.614225,-1.35992 -6.688518,-2.28966 -2.074282,-0.92969 -3.988728,-2.01441 -5.730881,-3.18172 -2.016272,-1.35165 -3.805613,-2.81739 -5.380481,-4.31906 -1.574878,-1.50162 -2.931712,-3.02775 -4.112871,-4.5272 -2.362296,-2.99895 -3.995194,-5.85846 -5.144342,-8.23674 -1.149158,-2.37832 -1.819738,-4.29374 -2.224932,-5.59027 -0.405348,-1.29654 -0.546447,-1.9747 -0.498928,-1.99229 0.04687,-0.0176 0.275247,0.62559 0.768527,1.87333 0.493434,1.24777 1.245314,3.11128 2.461048,5.40443 1.215746,2.29312 2.904399,5.02564 5.285939,7.89476 1.190687,1.43458 2.561106,2.89207 4.12628,4.3191 1.565173,1.42702 3.325741,2.82599 5.306299,4.09605 1.710794,1.09778 3.578207,2.10347 5.602715,2.96614 2.024673,0.86259 4.209352,1.58379 6.519938,2.10378 2.310585,0.51999 4.74449,0.84128 7.281675,0.89948 2.537345,0.0584 5.180554,-0.15665 7.848169,-0.69132 4.193511,-0.83887 8.479801,-2.49429 12.554191,-5.05504 4.0744,-2.56077 7.93318,-6.02057 11.13836,-10.37026 2.75926,-3.74114 5.02427,-8.14679 6.57376,-13.00185 1.5495,-4.8551 2.38978,-10.16533 2.25192,-15.60371 -0.10832,-4.51534 -0.89427,-9.08694 -2.29911,-13.55938 -0.99691,-2.34615 -1.99509,-4.83742 -2.98019,-7.46359 -1.67752,-3.43597 -3.7358,-6.7334 -6.12203,-9.77554 -3.22796,-4.1157 -7.05701,-7.78765 -11.34734,-10.95012 -4.29032,-3.16244 -9.041766,-5.82395 -14.071201,-7.91707 -7.451704,-3.09504 -15.547162,-4.94193 -23.928529,-5.35982 -8.381367,-0.4179 -17.044127,0.60347 -25.479314,3.26346 -7.74974,2.44189 -15.307467,6.25818 -22.303713,11.3441 -6.996092,5.08592 -13.4258398,11.43929 -18.8649932,18.87462 -5.0995746,6.96827 -9.3333396,14.89341 -12.4800128,23.44641 -3.146827,8.55302 -5.20738,17.7356 -5.980428,27.17083 -0.73636,8.96814 -0.313227,18.15548 1.28104,27.2154 1.594101,9.05994 4.351575,17.98509 8.2459266,26.37538 4.1733016,9.00631 9.6439801,17.37713 16.1073416,24.89606 6.4635388,7.51894 13.9231538,14.18458 22.0407588,19.8187 7.840247,5.44094 16.290954,9.93895 25.148788,13.54452 8.858,3.60564 18.121679,6.32181 27.562823,8.25161 3.575299,0.73029 7.182599,1.35192 10.807839,1.86591 15.271424,2.16515 30.618814,2.46004 45.726524,1.83615 9.69634,-0.40204 19.30736,-1.18233 28.83026,-2.11865 9.52295,-0.93628 18.96536,-2.03241 28.31778,-3.07763 28.7464,-3.21444 56.62874,-5.94937 83.42288,-8.26646 26.7943,-2.31708 52.49244,-4.21599 76.85592,-5.75381 48.72674,-3.07565 92.10825,-4.72216 128.27952,-5.56799 36.1716,-0.84588 65.13814,-0.89951 85.04803,-0.75824 5.44463,0.0386 10.14484,0.0939 14.19919,0.15613 -14.72674,-6.86655 -28.3606,-14.17903 -40.84496,-21.61026 -5.96912,-3.5531 -11.6701,-7.11664 -17.1862,-10.51152 -5.51624,-3.39483 -10.8463,-6.6283 -16.03332,-9.57481 -6.19458,-3.51699 -12.20492,-6.62192 -17.99529,-9.22544 -5.79036,-2.60351 -11.36544,-4.70945 -16.68725,-6.28164 -6.55324,-1.93862 -12.69497,-3.10416 -18.27166,-3.82844 -5.57688,-0.7243 -10.589,-0.99773 -14.95465,-1.07048 -3.39121,-0.0563 -6.39291,0.0181 -8.98747,0.13385 -2.59456,0.11571 -4.77859,0.27667 -6.54013,0.42372 -1.76155,0.14691 -3.099,0.2652 -3.99812,0.34196 -0.89911,0.0766 -1.36265,0.10936 -1.36863,0.0595 -0.0161,-0.0497 0.44544,-0.16722 1.33485,-0.34196 0.88943,-0.17476 2.21896,-0.41074 3.97807,-0.65419 1.75896,-0.24348 3.94332,-0.49605 6.54678,-0.70622 2.60328,-0.21015 5.6263,-0.37438 9.04143,-0.40886 4.39636,-0.0448 9.45229,0.11558 15.09607,0.73596 5.64377,0.62029 11.87246,1.69982 18.54141,3.56081 5.41508,1.51327 11.08745,3.54882 16.97043,6.10323 5.88315,2.55438 11.97881,5.63154 18.24483,9.10648 5.24715,2.90845 10.63037,6.08778 16.18153,9.4336 5.55116,3.34581 11.27559,6.84807 17.24019,10.33308 14.30007,8.3553 30.08562,16.55805 47.2773,24.12292 0.33652,0.008 0.74719,0.015 1.06527,0.0224 4.50902,0.11058 7.14237,2.92555 7.7672,3.7541 19.85268,8.24673 41.46044,15.60225 64.54432,21.37983 19.57274,4.89855 40.20154,8.66093 61.64509,10.93525 21.44386,2.2743 43.69587,3.05167 66.41883,1.99228 18.60897,-0.87125 37.56966,-3.0384 56.34574,-7.48592 5.8025,-1.37448 11.53337,-2.95318 17.1794,-4.7577 11.89526,-3.80028 23.38483,-8.61291 34.18363,-14.5704 11.04412,-6.09249 21.36805,-13.39489 30.60346,-21.82584 10.21111,-9.32208 19.09546,-20.05333 26.3962,-31.63113 7.30092,-11.5778 13.01645,-24.00428 16.99079,-36.78282 4.37566,-14.06447 6.62388,-28.55025 6.93112,-42.64072 0.30708,-14.09043 -1.32548,-27.78164 -4.64558,-40.48486 -2.38881,-9.1532 -5.67286,-17.76317 -9.58078,-25.7212 -3.90793,-7.95796 -8.44424,-15.26075 -13.3835,-21.83328 -5.66979,-7.54237 -11.8731,-14.14228 -18.32565,-19.7667 -6.45269,-5.62433 -13.1593,-10.27455 -19.86963,-14.01282 -8.42291,-4.69453 -16.83483,-7.95382 -24.84559,-10.14726 -8.01076,-2.19342 -15.61973,-3.33177 -22.5801,-3.78383 -7.89375,-0.51196 -14.96659,-0.14624 -21.06309,0.59471 -6.09631,0.74108 -11.2182,1.86549 -15.32524,2.9438 -4.1072,1.0783 -7.57244,4.52278 -9.65498,5.23346 -1.15141,0.39293 -2.42436,1.78456 -3.35095,2.94381 -0.30385,2.70408 -0.69613,5.33014 -1.15304,7.86504 -0.85935,4.76792 -1.95711,9.21765 -3.19581,13.3215 -1.23869,4.10385 -2.61492,7.85489 -4.03188,11.24746 -1.41713,3.39256 -2.87626,6.42804 -4.28821,9.09906 -1.41181,2.671 -2.77333,4.97948 -4.01832,6.94323 -1.24516,1.96376 -2.37442,3.58119 -3.31734,4.86176 -0.94293,1.28057 -1.69594,2.2243 -2.23172,2.83976 -0.28657,0.32922 -0.92078,1.35671 -1.46303,2.24502 0.77451,0.80345 1.5377,1.61965 2.29248,2.45315 5.07647,5.60774 9.54199,11.71918 13.3363,18.13869 3.79415,6.4195 6.92594,13.1423 9.3584,19.98223 2.16511,6.09201 3.76844,12.25881 4.88801,18.37654 1.11973,6.11772 1.75087,12.188 1.94853,18.0866 0.19785,5.8986 -0.0324,11.63523 -0.61351,17.12022 -0.5812,5.48497 -1.50829,10.71881 -2.71044,15.6483 -1.26375,5.17828 -2.82797,9.99989 -4.55783,14.45889 -1.72986,4.45898 -3.63122,8.55096 -5.59609,12.25845 -1.96471,3.7075 -3.99277,7.04102 -5.98705,10.00601 -1.99446,2.96499 -3.95238,5.56634 -5.79845,7.82786 -1.84623,2.26156 -3.58289,4.18481 -5.13095,5.79842 -1.54819,1.61365 -2.90989,2.91713 -4.03866,3.93996 -1.12896,1.02283 -2.01902,1.75504 -2.63626,2.23017 -0.61725,0.47514 -0.96135,0.68999 -1.00467,0.63187 -0.0437,-0.0582 0.2119,-0.37439 0.74171,-0.95896 0.52979,-0.58459 1.33824,-1.43137 2.37328,-2.54983 2.0701,-2.23691 5.07826,-5.56524 8.54251,-10.1844 3.46428,-4.61911 7.38027,-10.55097 11.05739,-17.91566 1.83865,-3.68229 3.61845,-7.72122 5.22533,-12.10975 1.60703,-4.38854 3.03417,-9.12586 4.18704,-14.18384 1.09808,-4.81453 1.94693,-9.91844 2.44749,-15.25432 0.50038,-5.33591 0.65668,-10.90228 0.41132,-16.62215 -0.2455,-5.71986 -0.9046,-11.58417 -2.02951,-17.49933 -1.12491,-5.91517 -2.71368,-11.87921 -4.83419,-17.75206 -2.37993,-6.59502 -5.42606,-13.08842 -9.109,-19.2835 -3.68294,-6.19504 -7.99848,-12.08628 -12.90476,-17.50677 -5.19186,-5.73595 -10.87589,-10.75807 -16.86263,-14.94949 -4.7209,-3.3068 -9.63121,-6.09367 -14.61732,-8.40031 -4.98612,-2.30663 -10.0529,-4.13005 -15.09608,-5.48618 -5.04332,-1.35612 -10.0671,-2.24924 -14.98826,-2.72825 -4.92113,-0.47897 -9.74191,-0.53992 -14.39492,-0.23786 -7.58344,0.4902 -14.71642,1.96198 -21.21809,4.01429 -6.50184,2.0523 -12.3659,4.68321 -17.55034,7.53049 -5.64748,3.10279 -10.48523,6.46636 -14.53635,9.68635 -4.05128,3.22004 -7.31885,6.29047 -9.89773,8.90579 -2.44895,2.48322 -4.26964,4.53554 -5.54906,5.98427 -5.24779,7.16608 -10.77729,13.57082 -16.37031,19.25374 -7.84478,7.97051 -15.80641,14.52439 -23.44318,19.88558 -8.47317,5.94927 -16.54502,10.43345 -23.76674,13.84187 -7.22171,3.40843 -13.59926,5.75026 -18.83799,7.39671 -5.2389,1.64644 -9.34724,2.61039 -12.12961,3.18171 -2.7822,0.57131 -4.23699,0.74638 -4.25428,0.64674 -0.0178,-0.0996 1.39788,-0.47529 4.13307,-1.23402 2.73501,-0.75876 6.78369,-1.89883 11.94049,-3.7095 5.1568,-1.8107 11.42816,-4.30319 18.52138,-7.8353 7.09305,-3.53212 15.01638,-8.10918 23.315,-14.11693 7.47869,-5.41507 15.27207,-11.99632 22.93065,-19.94508 7.65843,-7.94873 15.18674,-17.26961 21.97999,-28.07031 5.49977,-8.74164 10.50657,-18.44337 14.75892,-29.007 4.25235,-10.56356 7.74893,-21.99042 10.21468,-34.06942 2.18256,-10.69616 3.54717,-21.91333 3.93086,-33.44502 0.38354,-11.53166 -0.21464,-23.37454 -2.00252,-35.25885 -1.65133,-10.98699 -4.30763,-21.996042 -7.96955,-32.798254 -0.38791,-1.144458 -0.79633,-2.287597 -1.20686,-3.427033 -0.28105,0.129303 -0.5639,0.265253 -0.7753,0.356836 -0.588,0.254712 -0.90478,0.349439 -0.93726,0.282482 -0.0324,-0.06689 0.21334,-0.29738 0.74168,-0.683917 0.20268,-0.148252 0.47842,-0.344532 0.76191,-0.535242 -3.42515,-9.414848 -7.6164,-18.644022 -12.5474,-27.512806 C 654.96252,44.534167 648.54117,35.094552 641.26257,26.352572 634.24339,17.922164 626.57832,10.316029 618.4129,3.6792324 609.74981,-3.3647742 600.53397,-9.3148465 591.04565,-14.191815 c -9.4883,-4.876936 -19.25302,-8.683431 -29.05944,-11.448237 -10.60192,-2.987657 -21.2614,-4.762322 -31.72254,-5.41929 -3.26919,-0.205325 -6.51185,-0.307817 -9.73595,-0.297351 z m 199.8967,96.766735 c -6.23549,-0.01677 -11.99917,0.620439 -17.13237,1.568533 -6.31775,1.166872 -11.69581,2.798616 -16.03318,4.386017 -3.56316,1.304006 -6.38675,2.557582 -8.54249,3.545944 0.4262,1.188119 0.83156,2.382208 1.23367,3.575695 3.71866,11.034111 6.41085,22.277596 8.07074,33.504466 1.79339,12.14457 2.38719,24.23154 1.95517,35.9874 -0.43202,11.75582 -1.88616,23.18154 -4.1599,34.06203 -2.56675,12.28775 -6.18068,23.894 -10.57203,34.61208 -4.39134,10.71813 -9.55233,20.54469 -15.21066,29.38611 -0.31968,0.49922 -0.64843,0.9866 -0.97104,1.47935 2.39916,-2.66559 5.41718,-5.71318 9.1562,-8.90578 4.01799,-3.43083 8.86641,-7.01224 14.57014,-10.33306 5.23534,-3.04916 11.19963,-5.88544 17.8403,-8.11781 6.64066,-2.2324 13.95984,-3.86134 21.77762,-4.4752 4.79378,-0.37513 9.7521,-0.38039 14.8331,0.0595 5.08131,0.43986 10.27771,1.32484 15.49398,2.68364 5.21627,1.35876 10.45647,3.19574 15.62199,5.55311 5.16553,2.35736 10.25057,5.23593 15.15005,8.64559 5.28059,3.67658 10.33347,7.9655 15.02867,12.816 0.47775,-0.9399 1.03844,-2.00701 1.26084,-2.38627 0.41795,-0.71304 1.05281,-1.74671 1.87435,-3.10737 1.64308,-2.72136 4.02623,-6.73917 6.58718,-12.12464 1.28055,-2.69277 2.60506,-5.72346 3.8903,-9.09907 1.2854,-3.37559 2.52766,-7.09975 3.64092,-11.14339 1.11343,-4.04361 2.09562,-8.41458 2.84525,-13.07618 0.74961,-4.66158 1.26664,-9.60785 1.4496,-14.79341 0.30256,-8.54057 -0.30563,-17.72295 -2.11033,-27.11876 -1.80454,-9.39591 -4.80493,-18.99803 -9.18981,-28.22644 -3.13537,-6.60083 -6.97783,-13.01071 -11.47552,-19.00099 -3.43112,-4.56995 -7.14558,-8.771391 -11.06418,-12.570663 -3.91843,-3.799367 -8.04745,-7.193702 -12.28444,-10.162114 -8.12551,-5.694263 -16.67562,-9.815014 -25.04115,-12.570677 -8.36521,-2.755682 -16.54131,-4.147148 -24.11052,-4.534657 -1.48791,-0.07648 -2.9435,-0.115215 -4.38245,-0.11891 z"
         style="fill:#f2f2f2;fill-opacity:0.81871344;stroke:none" />
      <path
         sodipodi:nodetypes="csc"
         transform="translate(63.252143,175.86223)"
         inkscape:connector-curvature="0"
         inkscape:original-d="m 580.34893,87.748503 c 37.18185,-17.844485 83.05571,-78.9760115 128.14274,-33.888988 14.25859,14.258596 26.74175,18.402491 37.06608,33.888988"
         inkscape:path-effect="#path-effect5317;#path-effect5319"
         id="path5315"
         d="m 580.34893,87.748503 c -0.48623,-0.312758 0.0539,-2.266938 1.75943,-5.486605 1.70552,-3.219667 4.60468,-7.701551 9.02153,-12.7223 4.41686,-5.020748 10.3743,-10.574243 17.98706,-15.653457 7.61276,-5.079215 16.89057,-9.671136 27.48976,-12.627227 10e-6,-10e-7 10e-6,-2e-6 10e-6,-2e-6 8.20561,-2.280103 17.1374,-3.550953 26.35881,-3.530338 9.00973,0.02014 17.73343,1.268894 25.7665,3.432839 8.03308,2.163946 15.37309,5.239647 21.79053,8.81713 6.9107,3.857964 12.73001,8.252699 17.46168,12.579459 4.73167,4.326759 8.382,8.582593 11.09764,12.280527 2.71565,3.697935 4.50573,6.836983 5.54249,9.076428 1.03675,2.239446 1.32985,3.578526 0.93338,3.833546 -0.39647,0.25502 -1.45605,-0.586888 -3.16332,-2.275959 -1.70727,-1.689071 -4.07219,-4.223553 -7.20351,-7.251531 -3.13131,-3.027979 -7.03735,-6.549033 -11.81136,-10.122791 -4.77401,-3.573757 -10.42074,-7.198993 -16.91878,-10.357735 -6.01813,-2.929972 -12.78685,-5.438246 -20.12519,-7.203188 -7.33835,-1.764943 -15.24397,-2.785258 -23.39427,-2.806658 -8.3418,-0.0219 -16.40924,1.006955 -23.86444,2.868556 0,1e-6 -10e-6,1e-6 -10e-6,2e-6 -9.635,2.395102 -18.26052,6.169424 -25.56827,10.357547 -7.30774,4.188123 -13.30322,8.783671 -18.03749,12.920846 -4.73426,4.137174 -8.22729,7.813327 -10.69566,10.326221 -2.46837,2.512895 -3.94029,3.857448 -4.42652,3.54469 z"
         style="fill:#f2f2f2;fill-rule:evenodd;stroke:none" />
      <g
         id="g5364">
        <path
           style="fill:#f2f2f2;fill-opacity:0.85380117;fill-rule:evenodd;stroke:none"
           d="m -14.228111,145.013 c 0.403102,-0.0346 0.842318,0.71992 1.427087,2.09231 0.584769,1.3724 1.326488,3.36764 2.475829,5.77114 1.1493404,2.4035 2.7158187,5.22215 4.9321236,8.10423 2.2163048,2.88209 5.0882342,5.83238 8.714451,8.27132 3.457709,2.34285 7.6530944,4.23085 12.3260564,5.26835 4.672962,1.03749 9.821263,1.22408 14.867592,0.14579 4.827629,-0.99132 9.626842,-3.16155 13.953572,-6.3163 3.267816,-2.38266 6.132363,-5.22485 8.479609,-8.30129 3.401152,-4.47272 5.746887,-9.51542 7.142345,-14.51842 1.395458,-5.00301 1.840149,-9.96371 1.563145,-14.50148 -0.278278,-4.71497 -1.323138,-9.01301 -2.634448,-12.70032 -1.311311,-3.68732 -2.889012,-6.77006 -4.325714,-9.24862 -1.436701,-2.47856 -2.732114,-4.36302 -3.572591,-5.72395 -0.840477,-1.36093 -1.223442,-2.2091 -0.948135,-2.52479 0.275307,-0.31569 1.197709,-0.0794 2.642412,0.78493 1.444704,0.86437 3.411122,2.36715 5.582838,4.66539 2.171716,2.29824 4.547635,5.40274 6.630375,9.38923 2.082739,3.9865 3.869224,8.8628 4.711443,14.48131 0.80162,5.40953 0.69706,11.43994 -0.685419,17.60748 -1.382478,6.16754 -4.046674,12.46814 -8.177785,18.16284 -2.84707,3.9351 -6.395613,7.53816 -10.523747,10.5281 -5.46583,3.9588 -11.655641,6.61916 -17.96473,7.80363 -6.652347,1.20729 -13.197197,0.69797 -18.991872,-0.94605 -5.794674,-1.64402 -10.8378785,-4.41718 -14.8578744,-7.71326 -4.1963735,-3.46007 -7.2083538,-7.40111 -9.2896266,-11.1316 -2.081272,-3.73049 -3.241082,-7.2534 -3.847764,-10.17798 -0.606681,-2.92459 -0.67079,-5.25749 -0.524838,-6.83404 0.145953,-1.57655 0.492564,-2.40335 0.895666,-2.43795 z"
           id="path5255"
           inkscape:path-effect="#path-effect5257;#path-effect5259"
           inkscape:original-d="m -14.228111,145.013 c 4.11817,14.26778 27.505916,52.62081 45.679724,34.44701 5.680308,-5.68031 20.230021,-11.24385 25.460829,-16.47466 38.25113,-38.25113 62.713638,-101.841959 -6.739631,-62.15438"
           inkscape:connector-curvature="0"
           transform="translate(63.252143,175.86223)"
           sodipodi:nodetypes="cssc" />
        <path
           style="fill:#f2f2f2;fill-opacity:0.85380117;fill-rule:evenodd;stroke:none"
           d="m 294.41059,147.05424 c -0.33543,-0.3221 1.46631,-2.75129 4.77798,-7.24018 3.31168,-4.48889 8.12188,-11.07258 13.32998,-19.95023 5.20809,-8.87766 10.80692,-20.081057 15.3549,-33.539605 2.27399,-6.729274 4.28057,-14.01493 5.81627,-21.79095 1.5357,-7.776021 2.6002,-16.042648 2.97991,-24.68687 0.49889,-11.322255 -0.1515,-23.306252 -2.28042,-35.5299034 -2.12891,-12.2236513 -5.73721,-24.6850496 -11.0813,-36.8116896 -5.10814,-11.59656 -11.81493,-22.897139 -20.04439,-33.329566 -7.36538,-9.33704 -15.67944,-17.633576 -24.61329,-24.693618 -7.93723,-6.270902 -16.363,-11.583408 -24.98351,-15.868388 -8.6205,-4.28498 -17.4351,-7.54212 -26.19371,-9.77957 -10.20961,-2.60949 -20.35028,-3.84139 -29.98778,-3.92826 -9.6375,-0.0869 -18.77209,0.97031 -27.14341,2.86262 0,1e-5 -1e-5,1e-5 -1e-5,1e-5 -11.60021,2.61223 -21.71188,6.83103 -30.13722,11.41146 -8.42535,4.58044 -15.1802,9.523355 -20.44379,13.893522 -5.26358,4.370167 -9.057,8.169252 -11.65506,10.749877 -2.59805,2.580625 -4.0213,3.941237 -4.32071,3.716782 -0.29941,-0.224455 0.541,-2.025857 2.64436,-5.108437 2.10337,-3.08258 5.48958,-7.446367 10.50583,-12.455196 5.01625,-5.008828 11.684,-10.664188 20.25731,-15.973638 8.57331,-5.30945 19.06921,-10.27218 31.35551,-13.5316 1e-5,0 1e-5,0 2e-5,0 8.85702,-2.34267 18.58272,-3.79145 28.89223,-3.98481 10.30951,-0.19335 21.20289,0.87034 32.2126,3.47287 9.43774,2.23204 18.94051,5.57037 28.22568,10.03592 9.28517,4.46554 18.35191,10.05818 26.87564,16.71396 9.59625,7.491527 18.5048,16.318279 26.36022,26.271945 8.777,11.121393 15.87811,23.190697 21.22723,35.586722 5.59022,12.960471 9.27265,26.233416 11.3302,39.2067834 2.05754,12.9733676 2.49179,25.6451466 1.67441,37.5636186 -0.6258,9.109438 -1.98994,17.770165 -3.86021,25.86825 -1.87027,8.098085 -4.24621,15.633829 -6.90666,22.544182 -5.3209,13.820709 -11.75613,25.108069 -17.76326,33.849209 -6.00714,8.74113 -11.5776,14.96876 -15.59574,18.96896 -2.00907,2.0001 -3.63747,3.44486 -4.79583,4.35631 -1.15835,0.91146 -1.84627,1.29056 -2.01398,1.12951 z"
           id="path5261"
           inkscape:path-effect="#path-effect5263;#path-effect5265"
           inkscape:original-d="M 294.41059,147.05424 C 309.71018,107.6267 390.85757,89.941729 341.00795,40.092112 325.42334,24.5075 303.04373,-108.96926 281.70222,-94.404811 248.3409,-71.637483 181.62192,-104.10005 169.44494,-120.88058 47.729656,-288.61072 116.7997,-86.137528 103.78503,-77.460319"
           inkscape:connector-curvature="0"
           transform="translate(63.252143,175.86223)"
           sodipodi:nodetypes="csssc" />
        <path
           style="fill:#f2f2f2;fill-opacity:0.85380117;fill-rule:evenodd;stroke:#f2f2f2"
           d="m 291.2335,-92.286749 c -0.37722,0.363637 -1.83946,-0.463148 -4.29656,-2.161391 -2.45711,-1.698244 -5.92181,-4.262531 -10.42706,-7.2215 -4.50525,-2.95897 -10.06113,-6.30917 -16.64875,-9.4904 -6.58763,-3.18122 -14.21145,-6.18971 -22.69028,-8.42885 -10.74728,-2.84158 -22.90701,-4.42061 -35.60437,-3.97291 -8.20565,0.28932 -16.13206,1.40016 -23.53486,3.14475 -1e-5,1e-5 -1e-5,1e-5 -1e-5,1e-5 -10.04628,2.36305 -19.13203,5.90557 -26.95247,9.8116 -7.82043,3.90602 -14.38011,8.16891 -19.65279,12.004519 -5.27268,3.835605 -9.2743,7.238909 -12.10144,9.542331 -2.82713,2.303422 -4.50212,3.499286 -4.94957,3.126031 -0.44745,-0.373255 0.37118,-2.292795 2.50391,-5.377362 2.13272,-3.084567 5.60214,-7.327864 10.59491,-12.038329 4.99278,-4.71047 11.52686,-9.88037 19.61507,-14.60861 8.08821,-4.72825 17.73782,-9.00305 28.59547,-11.85949 0,0 0,0 0,0 7.99575,-2.10027 16.61018,-3.42486 25.52894,-3.74009 6.9004,-0.24389 13.66231,0.12528 20.12783,1.00761 6.46552,0.88233 12.63403,2.2772 18.38683,4.05011 9.07561,2.79963 17.0767,6.5254 23.80765,10.47622 6.73094,3.95083 12.19769,8.12018 16.41892,11.87538 4.22122,3.7552 7.20798,7.0916 9.06344,9.528071 1.85547,2.436471 2.59241,3.968663 2.21519,4.3323 z"
           id="path5267"
           inkscape:path-effect="#path-effect5269;#path-effect5271"
           inkscape:original-d="m 291.2335,-92.286749 c -4.07391,-11.836241 -96.73876,-50.466541 -114.37534,-32.829951 -8.72893,8.72892 -50.57788,37.696021 -62.48282,39.184141"
           inkscape:connector-curvature="0"
           transform="translate(63.252143,175.86223)"
           sodipodi:nodetypes="csc" />
        <path
           style="fill:#f2f2f2;fill-opacity:0.85380117;fill-rule:evenodd;stroke:none"
           d="m 296.52865,-74.283224 c -0.26492,-0.04179 -0.30054,-1.645193 0.0121,-4.690976 0.31259,-3.045784 0.97971,-7.536754 2.32208,-13.278325 1.34238,-5.741571 3.3671,-12.738045 6.49535,-20.664525 3.12824,-7.92648 7.36688,-16.78726 13.13195,-26.0615 5.19585,-8.36295 11.64135,-17.07084 19.57161,-25.57451 7.93026,-8.50366 17.34812,-16.80398 28.37008,-24.16556 12.7342,-8.49945 27.55707,-15.73472 44.02679,-20.68297 16.46972,-4.94825 34.58676,-7.60616 53.41757,-6.89358 16.23713,0.62011 32.92446,3.77019 49.14157,9.63779 16.21712,5.86761 31.96039,14.45279 46.09043,25.76807 9.5272,7.66229 18.22745,16.46042 25.99343,26.18532 9.62398,12.05155 17.54624,25.18236 23.85882,38.77077 6.31258,13.58841 11.01573,27.632776 14.24534,41.592029 2.79915,11.990988 4.57164,24.02639 5.2505,35.857569 0.67886,11.83118 0.264,23.457793 -1.24582,34.6775434 -1.22653,9.1010543 -3.18983,17.9210136 -5.82159,26.3041826 -2.63177,8.383169 -5.9319,16.329529 -9.81433,23.728352 -3.035,5.758221 -6.35729,11.10894 -9.70106,16.209949 -3.34377,5.101009 -6.70914,9.952279 -9.89269,14.676634 -5.47236,8.139622 -10.66167,16.153753 -16.34235,23.312631 -10e-6,1e-5 -10e-6,1e-5 -2e-5,2e-5 -4.97442,6.25665 -10.23936,11.75489 -15.55345,16.56085 -5.3141,4.80597 -10.67766,8.92025 -15.89995,12.43363 -10.44458,7.02677 -20.28701,11.64736 -28.51822,14.73192 -8.2312,3.08455 -14.86754,4.65718 -19.38921,5.48125 -2.26084,0.41203 -3.99901,0.63293 -5.17699,0.71971 -1.17798,0.0868 -1.79598,0.0401 -1.82828,-0.12173 -0.0646,-0.32356 2.22532,-1.05444 6.53148,-2.46755 4.30616,-1.4131 10.63941,-3.53179 18.43854,-7.06314 7.79914,-3.53135 17.08035,-8.49947 26.84806,-15.68235 4.88386,-3.59144 9.88097,-7.73535 14.80723,-12.50824 4.92627,-4.7729 9.78203,-10.17531 14.33544,-16.258075 10e-6,-5e-6 10e-6,-1e-5 10e-6,-1.5e-5 5.22408,-6.963779 10.07291,-14.92005 15.42859,-23.284722 3.10554,-4.8616 6.35324,-9.770305 9.5249,-14.822069 3.17165,-5.051763 6.26734,-10.246497 9.00644,-15.715116 3.52788,-7.009373 6.50537,-14.536829 8.86215,-22.478546 2.35678,-7.941717 4.09278,-16.2976935 5.1548,-24.919788 1.31193,-10.632736 1.58072,-21.669426 0.82075,-32.927976 -0.75998,-11.25855 -2.54856,-22.738697 -5.28831,-34.210929 -3.20987,-13.318893 -7.7725,-26.700916 -13.80928,-39.620424 -6.03678,-12.9195 -13.54778,-25.37487 -22.62188,-36.7615 -7.32228,-9.18835 -15.49877,-17.46887 -24.43689,-24.64003 -13.1995,-10.63893 -27.96303,-18.77221 -43.19381,-24.39311 -15.23078,-5.6209 -30.92539,-8.72891 -46.2064,-9.47109 -17.72457,-0.86743 -34.89858,1.42196 -50.59739,5.87016 -15.69881,4.4482 -29.92256,11.05303 -42.22298,18.87887 -10.63896,6.76369 -19.8384,14.46654 -27.67833,22.40434 -7.83993,7.9378 -14.32284,16.11165 -19.64789,23.99422 -5.90405,8.74425 -10.39587,17.14121 -13.849,24.68194 -3.45312,7.54074 -5.87428,14.229582 -7.65358,19.733559 -1.77931,5.503977 -2.92397,9.827235 -3.7353,12.747838 -0.81132,2.920603 -1.29605,4.440989 -1.56097,4.399199 z"
           id="path5273"
           inkscape:path-effect="#path-effect5275;#path-effect5277"
           inkscape:original-d="m 296.52865,-74.283224 c 12.57617,-25.078999 40.98946,-95.685926 72.0141,-111.198246 63.82349,-31.91174 130.2551,-48.72112 187.44847,8.47224 21.41119,21.4112 48.3443,89.646516 62.48282,103.785037 5.72884,5.728835 14.27096,58.802165 4.23612,68.8370082 -5.44647,5.4464716 -12.07615,40.4646038 -14.82643,48.7154208 -2.59478,7.784354 -12.0043,27.182772 -19.06255,30.711896 -2.54424,1.272117 6.44816,36.878118 -15.88547,23.29868 -19.88735,-12.092044 -71.41411,82.735568 -83.66344,51.892508"
           inkscape:connector-curvature="0"
           transform="translate(63.252143,175.86223)"
           sodipodi:nodetypes="csssssssc" />
        <path
           style="fill:#f2f2f2;fill-opacity:0.85380117;fill-rule:evenodd;stroke:none"
           d="m 553.87316,-180.18631 c -0.27554,0.41772 -2.52277,-0.53671 -6.55435,-2.42642 -4.03158,-1.88972 -9.86604,-4.70271 -17.44036,-7.69542 -7.57431,-2.99271 -16.90429,-6.1564 -27.78554,-8.5936 -10.88125,-2.4372 -23.3208,-4.14015 -36.79787,-4.17943 -10.2119,-0.0324 -21.01781,0.89719 -32.0607,3.02372 -11.04288,2.12653 -22.32015,5.45051 -33.38165,10.09257 -7.50453,3.14934 -14.64114,6.79141 -21.32401,10.82221 -14.22096,8.57367 -26.39813,18.86086 -36.3221,29.4908 -8.8671,9.49617 -15.9394,19.28318 -21.5114,28.43883 -5.57201,9.15566 -9.65326,17.6799 -12.70213,24.869029 -3.04888,7.189125 -5.08059,13.047568 -6.53055,17.053874 -1.44995,4.006305 -2.33686,6.164378 -2.81578,6.065953 -0.47892,-0.09843 -0.51834,-2.450868 0.0817,-6.741486 0.60003,-4.290618 1.85757,-10.524205 4.26789,-18.211942 2.41032,-7.687738 5.98982,-16.833728 11.26723,-26.703188 5.27741,-9.86946 12.26468,-20.46108 21.30967,-30.77033 5.05806,-5.76421 10.74664,-11.43469 17.05805,-16.82136 6.31142,-5.38667 13.24568,-10.48893 20.75201,-15.11164 7.06482,-4.34897 14.63131,-8.25634 22.59928,-11.60129 11.74461,-4.93037 23.74118,-8.37452 35.47575,-10.46503 11.73457,-2.0905 23.20416,-2.82873 33.99845,-2.48597 14.24555,0.45576 27.2562,2.77848 38.48295,5.93292 11.22676,3.15445 20.67755,7.12975 28.17473,10.94637 7.49718,3.81662 13.05723,7.46448 16.68681,10.17631 3.62959,2.71183 5.34747,4.4768 5.07193,4.89452 z"
           id="path5291"
           inkscape:path-effect="#path-effect5293;#path-effect5295"
           inkscape:original-d="m 553.87316,-180.18631 c -50.42222,-28.55169 -126.9247,-54.16959 -177.91719,-3.1771 -8.11156,8.11156 -27.86394,26.11083 -37.06608,30.7119 -19.5121,9.75604 -36.7172,58.271465 -40.24317,79.427316"
           inkscape:connector-curvature="0"
           transform="translate(63.252143,175.86223)"
           sodipodi:nodetypes="cssc" />
        <path
           style="fill:#f2f2f2;fill-opacity:0.85380117;fill-rule:evenodd;stroke:none"
           d="m 563.40443,141.75907 c -0.34513,-0.0174 -0.63674,-1.52492 -0.69265,-4.40495 -0.0559,-2.88002 0.13375,-7.13961 1.01974,-12.55991 0.88599,-5.4203 2.47875,-12.01019 5.34331,-19.32569 2.86455,-7.315497 7.01035,-15.363404 12.96625,-23.354142 1e-5,-3e-6 1e-5,-6e-6 1e-5,-9e-6 5.54437,-7.432575 12.65108,-14.771826 21.36877,-21.212063 8.7177,-6.440236 19.04952,-11.978824 30.68716,-15.639339 8.97439,-2.822872 18.70791,-4.536544 28.82296,-4.676216 7.85052,-0.09726 15.85894,0.804791 23.78449,2.707178 7.92555,1.902388 15.76757,4.804965 23.24599,8.657582 3.98391,2.04778 7.87123,4.360828 11.62327,6.928253 9.92971,6.794648 18.52774,15.116186 25.40909,24.371473 5.38742,7.278456 9.70855,15.028699 13.0589,22.940763 3.35035,7.91207 5.73021,15.98529 7.26244,23.9595 1.53222,7.97421 2.21716,15.84903 2.20016,23.42195 -0.017,7.57292 -0.73554,14.84386 -1.99341,21.67134 -2.41112,13.11035 -6.71921,24.55399 -11.56781,34.0454 -4.8486,9.4914 -10.2333,17.04653 -15.0959,22.81231 -4.8626,5.76579 -9.20125,9.76451 -12.30045,12.28391 -3.0992,2.51939 -4.95615,3.58117 -5.22865,3.27576 -0.2725,-0.30541 1.05088,-1.9597 3.5614,-4.96781 2.51052,-3.00811 6.20372,-7.39221 10.36232,-13.36308 4.1586,-5.97087 8.78129,-13.55022 12.8809,-22.81751 4.0996,-9.2673 7.67401,-20.23715 9.48891,-32.58048 0.94115,-6.41734 1.391,-13.21625 1.21216,-20.26376 -0.17883,-7.04751 -0.98656,-14.34358 -2.54584,-21.69756 -1.55929,-7.35397 -3.87028,-14.7655 -7.03826,-21.98934 -3.16799,-7.22384 -7.19307,-14.259339 -12.16124,-20.814187 -6.28771,-8.336307 -14.12905,-15.858965 -23.15319,-22.034085 -3.40986,-2.33333 -6.9388,-4.44095 -10.55119,-6.312059 -6.77834,-3.50237 -13.86747,-6.174847 -21.01089,-7.959495 -7.14342,-1.784648 -14.34057,-2.681183 -21.3765,-2.675021 -9.12052,-0.006 -17.99346,1.397733 -26.24662,3.79603 -10.68011,3.103352 -20.30655,7.931514 -28.54699,13.61116 -8.24043,5.679646 -15.097,12.209683 -20.57459,18.878731 -10e-6,3e-6 -10e-6,5e-6 -10e-6,8e-6 -5.89023,7.165353 -10.2137,14.487888 -13.40249,21.211548 -3.18879,6.72366 -5.25119,12.85559 -6.67847,17.94656 -1.42728,5.09096 -2.2298,9.1497 -2.8172,11.91152 -0.58741,2.76181 -0.97075,4.23311 -1.31588,4.21573 z"
           id="path5303"
           inkscape:path-effect="#path-effect5305;#path-effect5307"
           inkscape:original-d="m 563.40443,141.75907 c 59.76849,-6.75186 55.42911,-52.13217 72.01411,-92.135679 5.26703,-12.704233 12.85788,3.102335 27.53479,-4.236124 58.74672,-29.37336 115.78707,68.485283 100.60794,129.201773 -6.57804,26.31218 -33.07939,55.16368 -40.24317,73.07313"
           inkscape:connector-curvature="0"
           transform="translate(63.252143,175.86223)"
           sodipodi:nodetypes="csssc" />
        <path
           style="fill:#f2f2f2;fill-opacity:0.85380117;fill-rule:evenodd;stroke:none"
           d="m 354.77535,202.12384 c -0.0345,-0.2291 1.35559,-0.69071 4.11563,-1.24176 2.76005,-0.55105 6.89518,-1.18773 12.33807,-1.54314 5.4429,-0.3554 12.20107,-0.42561 20.09787,0.32189 7.89681,0.74751 16.94032,2.3166 26.72634,5.34672 6.73024,2.09069 13.75278,4.85914 21.00463,8.25571 7.25186,3.39658 14.73213,7.42397 22.42317,11.84633 6.39986,3.6714 12.97135,7.61489 19.79777,11.6102 6.82642,3.99531 13.90743,8.04299 21.38245,11.81951 13.24064,6.71294 27.846,12.5388 43.49705,18.09235 15.65104,5.55354 32.34871,10.83395 49.51125,17.04685 5.95292,2.14967 11.83892,4.3836 17.80501,6.18665 9.26993,2.82906 19.01449,4.69006 29.10236,5.90648 10.08787,1.21641 20.51896,1.7886 31.12858,2.12968 18.58866,0.54865 37.7403,0.37181 57.03306,-1.27886 19.29276,-1.65066 38.72506,-4.77799 57.80409,-10.24423 4.42694,-1.26834 8.80344,-2.65412 13.12463,-4.16319 20.7187,-7.21128 39.99144,-17.34279 56.65582,-30.03521 8.67766,-6.61423 16.65535,-13.93908 23.7134,-21.83324 7.05805,-7.89415 13.19621,-16.35751 18.24597,-25.25551 4.97715,-8.74757 8.87758,-17.92735 11.74412,-27.24611 2.86655,-9.31875 4.69923,-18.77632 5.55888,-28.12581 0.92836,-10.15711 0.70272,-20.20567 -0.57406,-29.84648 -1.27679,-9.64082 -3.60463,-18.87388 -6.85803,-27.48192 -3.07505,-8.159576 -6.96168,-15.763787 -11.3971,-22.729742 -4.43542,-6.965955 -9.41967,-13.293855 -14.72784,-18.947865 -10.61635,-11.30802 -22.49403,-19.882986 -34.26792,-25.94056 -6.47864,-3.337283 -12.93249,-5.925395 -19.1731,-7.920948 -6.24062,-1.995552 -12.26872,-3.39886 -17.95536,-4.365075 -11.37326,-1.93243 -21.34754,-2.129377 -29.42221,-1.73532 -8.07467,0.394056 -14.27661,1.366314 -18.46899,2.056652 -4.19239,0.690338 -6.39524,1.084938 -6.47477,0.808449 -0.0795,-0.276489 1.96899,-1.214985 6.0936,-2.452695 4.1246,-1.2377096 10.34562,-2.7625725 18.58547,-3.6871715 8.23985,-0.9245989 18.52557,-1.23656 30.38962,0.2920475 5.93203,0.7643037 12.24994,1.9928998 18.82635,3.856566 6.57641,1.863666 13.41204,4.362759 20.31831,7.67241 12.54499,6.019148 25.27991,14.72892 36.74313,26.431719 5.73161,5.851399 11.13617,12.441816 15.97432,19.746438 4.83814,7.304622 9.10986,15.323686 12.53699,23.984787 3.6116,9.151229 6.24377,18.969208 7.74741,29.228838 1.50364,10.25963 1.87858,20.96091 0.99927,31.79584 -0.80371,9.96688 -2.65253,20.06229 -5.62076,30.03191 -2.96824,9.96962 -7.05596,19.81326 -12.31757,29.22988 -5.34632,9.54528 -11.8228,18.60696 -19.26111,27.03421 -7.43832,8.42724 -15.83823,16.21991 -24.97906,23.22253 -17.51563,13.42786 -37.69707,24.11564 -59.34926,31.65131 -4.50742,1.56367 -9.06528,2.99943 -13.66829,4.31292 -19.83782,5.66083 -39.90622,8.88664 -59.70854,10.54583 -19.80232,1.6592 -39.33723,1.75474 -58.19423,1.04852 -10.76403,-0.37519 -21.48746,-1.04283 -31.98156,-2.40764 -10.4941,-1.36481 -20.75871,-3.42712 -30.6351,-6.50068 -6.34665,-1.99285 -12.35436,-4.33502 -18.20203,-6.52173 -16.86939,-6.29288 -33.51449,-11.78724 -49.25991,-17.64506 -15.74541,-5.85782 -30.59111,-12.07786 -44.12123,-19.22982 -7.62599,-4.04447 -14.74807,-8.30669 -21.53724,-12.48028 -6.78917,-4.17358 -13.24517,-8.25911 -19.48084,-12.05233 -7.50087,-4.55249 -14.70873,-8.7022 -21.65729,-12.22679 -6.94855,-3.5246 -13.63707,-6.42682 -20.04349,-8.66745 -9.30428,-3.26419 -17.97777,-5.16117 -25.60381,-6.27999 -7.62604,-1.11881 -14.21268,-1.46329 -19.56027,-1.53654 -5.34759,-0.0733 -9.46356,0.12051 -12.2477,0.22469 -2.78414,0.10417 -4.24147,0.11433 -4.27595,-0.11477 z"
           id="path5309"
           inkscape:path-effect="#path-effect5311;#path-effect5313"
           inkscape:original-d="m 354.77535,202.12384 c 13.12652,5.24719 52.43371,-4.75396 62.48282,5.29516 19.00606,19.00606 56.43734,30.86625 83.66344,44.4793 27.74466,13.87232 63.05492,36.00704 93.19472,36.00704 4.96263,0 16.61414,3.57543 18.00352,6.35419 4.02933,8.05865 51.90843,8.47224 61.4238,8.47224 99.78824,0 190.32532,-14.22595 230.86873,-95.31278 4.77837,-9.55673 14.54613,-106.4637 9.53128,-116.493394 C 891.85935,46.75697 820.20137,-23.544809 758.26612,13.616341"
           inkscape:connector-curvature="0"
           transform="translate(63.252143,175.86223)"
           sodipodi:nodetypes="csssssssc" />
        <path
           style="fill:#f2f2f2;fill-opacity:0.85380117;fill-rule:evenodd;stroke:none"
           d="m 731.26083,76.099163 c -0.36628,-0.315714 0.64604,-2.138215 2.60027,-5.381312 1.95423,-3.243097 4.8407,-7.929772 7.9192,-14.125627 3.0785,-6.195854 6.34289,-13.92092 8.86393,-23.060113 2.52104,-9.139193 4.29268,-19.702095 4.28567,-31.1660871 5.6e-4,-9.7878338 -1.31369,-20.2368069 -4.25254,-30.7650039 -2.93884,-10.528197 -7.50213,-21.12996 -13.79124,-31.021233 -2.13884,-3.363881 -4.4344,-6.579398 -6.86572,-9.628543 -4.57792,-5.744716 -9.65945,-10.891572 -15.027,-15.379423 -5.36755,-4.487851 -11.02049,-8.316352 -16.76181,-11.477623 -6.75834,-3.714472 -13.65185,-6.503188 -20.34816,-8.421758 -6.6963,-1.91857 -13.19545,-2.96796 -19.268,-3.32337 0,0 0,0 -10e-6,0 -7.14052,-0.42657 -13.68848,0.0569 -19.39374,0.92934 -5.70526,0.87244 -10.57396,2.13154 -14.52463,3.32406 -3.95068,1.19252 -6.99141,2.31546 -9.10086,3.02245 -2.10945,0.706991 -3.29506,0.993587 -3.47634,0.675112 -0.18128,-0.318472 0.65226,-1.227972 2.49279,-2.570592 1.84054,-1.34262 4.69547,-3.11502 8.59984,-4.96269 3.90436,-1.84768 8.86641,-3.76752 14.84351,-5.25614 5.9771,-1.48861 12.97574,-2.54258 20.76301,-2.5583 0,0 1e-5,0 1e-5,0 6.63743,-0.006 13.79955,0.76897 21.20587,2.54414 7.40632,1.77518 15.05625,4.55271 22.55562,8.42607 6.36254,3.2803 12.63458,7.326937 18.58453,12.137723 5.94995,4.810785 11.57693,10.385586 16.63139,16.658189 2.6748,3.321226 5.19173,6.827036 7.5257,10.496648 6.86289,10.790256 11.73496,22.373107 14.73342,33.856298 2.99845,11.48319 4.12547,22.8599386 3.76207,33.4533551 -0.43327,12.4072459 -2.87741,23.6468619 -6.1594,33.1864489 -3.282,9.539587 -7.39161,17.390273 -11.29412,23.484688 -3.90252,6.094415 -7.59008,10.453557 -10.30067,13.228958 -2.71059,2.775401 -4.43631,3.990049 -4.80259,3.674335 z"
           id="path5327"
           inkscape:path-effect="#path-effect5329;#path-effect5331"
           inkscape:original-d="m 731.26083,76.099163 c 38.11895,-24.541109 23.46666,-106.626166 2.64758,-148.264325 -11.78493,-23.569868 -48.81645,-39.184148 -75.19119,-39.184148 -21.89774,0 -33.73392,-4.42997 -46.59737,11.649342"
           inkscape:connector-curvature="0"
           transform="translate(63.252143,175.86223)"
           sodipodi:nodetypes="cssc" />
        <path
           style="fill:#f2f2f2;fill-opacity:0.85380117;fill-rule:evenodd;stroke:none"
           d="m 82.60441,155.52648 c -0.256708,0.16995 -1.042965,-0.46091 -2.286882,-1.85489 -1.243918,-1.39399 -2.944646,-3.55233 -4.976792,-6.46328 -4.064292,-5.8219 -9.483877,-14.67095 -14.788548,-26.46345 -3.062583,-6.80372 -6.065024,-14.59776 -8.66494,-23.295127 -2.599916,-8.697368 -4.795509,-18.299182 -6.237181,-28.627885 -1.441673,-10.328703 -2.127513,-21.38413 -1.728572,-32.891021 0.398941,-11.50689 1.884623,-23.463856 4.736206,-35.50970744 0.87043,-3.67106236 1.870184,-7.34549916 3.0006,-11.01012956 3.143737,-10.191502 7.170621,-19.882742 11.849627,-28.887549 4.679007,-9.004807 10.009089,-17.322481 15.739113,-24.841322 5.730025,-7.518842 11.859049,-14.238762 18.130822,-20.128535 6.271767,-5.889774 12.685497,-10.949975 18.992857,-15.226256 8.16195,-5.524468 16.09241,-9.729348 23.28498,-12.910588 7.19258,-3.18125 13.64849,-5.34459 19.00667,-6.81553 5.35819,-1.47093 9.62109,-2.25617 12.54419,-2.61693 2.9231,-0.36076 4.50835,-0.30388 4.59257,0.0761 0.0842,0.37999 -1.33528,1.06308 -4.04003,2.11896 -2.70475,1.05587 -6.69628,2.49179 -11.70063,4.5367 -5.00435,2.0449 -11.02392,4.70527 -17.69757,8.26516 -6.67365,3.55988 -14.00287,8.024255 -21.5087,13.645718 -5.8006,4.337222 -11.68614,9.372484 -17.43863,15.148064 -5.752492,5.775581 -11.37148,12.291935 -16.634511,19.521344 -5.263031,7.229409 -10.169511,15.171674 -14.500417,23.727209 -4.330906,8.555534 -8.085517,17.723557 -11.058115,27.3400762 -1.068878,3.4578796 -2.020994,6.92204144 -2.857506,10.3809783 -2.752629,11.3632935 -4.273499,22.6683615 -4.824141,33.5933495 -0.550641,10.924988 -0.132441,21.468422 0.956075,31.378119 1.088515,9.909696 2.846023,19.185364 4.957341,27.657899 2.111318,8.472533 4.575161,16.142903 7.079224,22.920033 4.347961,11.75686 8.759534,20.86276 11.825174,27.13652 1.53282,3.13688 2.73484,5.56877 3.477988,7.26574 0.743148,1.69698 1.026436,2.66027 0.769728,2.83022 z"
           id="path5345"
           inkscape:path-effect="#path-effect5347;#path-effect5349"
           inkscape:original-d="M 82.60441,155.52648 C 67.3931,152.09289 72.617918,128.59549 63.541854,119.51943 26.093362,82.070938 85.291458,-63.202871 118.61146,-96.522872 134.78745,-112.69887 155.0337,-111.5569 175.79913,-121.93961"
           inkscape:connector-curvature="0"
           transform="translate(63.252143,175.86223)"
           sodipodi:nodetypes="cssc" />
        <path
           style="fill:#f2f2f2;fill-opacity:0.85380117;fill-rule:evenodd;stroke:none"
           d="m 399.25465,-191.83565 c -0.35193,0.46134 -2.8297,-0.80426 -7.23467,-3.17273 -4.40497,-2.36847 -10.7697,-5.8209 -19.05398,-9.34646 -8.28429,-3.52556 -18.51176,-7.11084 -30.36403,-9.59493 -11.85226,-2.48409 -25.33381,-3.85468 -39.63244,-2.99068 0,0 -1e-5,0 -1e-5,0 -10.81841,0.6473 -22.09772,2.58234 -33.33744,5.95576 -11.43848,3.43308 -22.11314,8.13596 -31.68521,13.61834 -9.57206,5.48237 -18.03915,11.74097 -25.28404,18.24139 -7.57401,6.79113 -13.84293,13.81999 -18.96087,20.42345 -5.11795,6.60347 -9.09151,12.78115 -12.18526,18.00091 -3.09374,5.21975 -5.31798,9.4832 -6.91993,12.37777 -1.60194,2.89458 -2.59393,4.42097 -3.03376,4.26515 -0.43983,-0.15582 -0.29935,-1.98718 0.52779,-5.25323 0.82714,-3.26606 2.35283,-7.96827 4.87805,-13.71905 2.52522,-5.75077 6.06103,-12.55147 10.92839,-19.84298 4.86735,-7.2915 11.07446,-15.07236 18.81617,-22.61086 7.41941,-7.21974 16.24789,-14.16946 26.34634,-20.21885 10.09846,-6.0494 21.46503,-11.19315 33.69838,-14.86174 12.02076,-3.60483 24.12945,-5.55797 35.72561,-6.03766 10e-6,0 10e-6,0 10e-6,0 15.32747,-0.62558 29.63836,1.3089 42.02978,4.53165 12.39141,3.22276 22.8695,7.71455 31.12772,12.17157 8.25821,4.45703 14.32168,8.86205 18.24016,12.1526 1.95925,1.64527 3.38543,3.01728 4.28268,4.02609 0.89725,1.00881 1.26653,1.65382 1.09056,1.88449 z"
           id="path5357"
           inkscape:path-effect="#path-effect5359;#path-effect5361"
           inkscape:original-d="m 399.25465,-191.83565 c -56.60333,-51.27404 -140.76637,-55.53561 -189.56653,9.53127 -9.57959,12.77279 -38.12511,38.4197 -38.12511,58.2467"
           inkscape:connector-curvature="0"
           transform="translate(63.252143,175.86223)"
           sodipodi:nodetypes="csc" />
      </g>
    </g>
  </g>
</svg>
